<svg width="31" height="31" viewBox="0 0 31 31" fill="none" xmlns="http://www.w3.org/2000/svg">
<path d="M17.4375 8.71875C17.4375 11.0311 16.5189 13.2488 14.8838 14.8838C13.2488 16.5189 11.0311 17.4375 8.71875 17.4375C6.40639 17.4375 4.18875 16.5189 2.55366 14.8838C0.91858 13.2488 0 11.0311 0 8.71875C0 6.40639 0.91858 4.18875 2.55366 2.55366C4.18875 0.91858 6.40639 0 8.71875 0C11.0311 0 13.2488 0.91858 14.8838 2.55366C16.5189 4.18875 17.4375 6.40639 17.4375 8.71875ZM9.6875 4.84375C9.6875 4.58682 9.58543 4.34042 9.40376 4.15874C9.22208 3.97706 8.97568 3.875 8.71875 3.875C8.46182 3.875 8.21542 3.97706 8.03374 4.15874C7.85206 4.34042 7.75 4.58682 7.75 4.84375V7.75H4.84375C4.58682 7.75 4.34042 7.85206 4.15874 8.03374C3.97706 8.21542 3.875 8.46182 3.875 8.71875C3.875 8.97568 3.97706 9.22208 4.15874 9.40376C4.34042 9.58543 4.58682 9.6875 4.84375 9.6875H7.75V12.5938C7.75 12.8507 7.85206 13.0971 8.03374 13.2788C8.21542 13.4604 8.46182 13.5625 8.71875 13.5625C8.97568 13.5625 9.22208 13.4604 9.40376 13.2788C9.58543 13.0971 9.6875 12.8507 9.6875 12.5938V9.6875H12.5938C12.8507 9.6875 13.0971 9.58543 13.2788 9.40376C13.4604 9.22208 13.5625 8.97568 13.5625 8.71875C13.5625 8.46182 13.4604 8.21542 13.2788 8.03374C13.0971 7.85206 12.8507 7.75 12.5938 7.75H9.6875V4.84375ZM8.71875 19.375C10.5428 19.3753 12.3363 18.9075 13.9278 18.0162C15.5192 17.1249 16.8552 15.8401 17.8079 14.2846C18.7606 12.7292 19.2981 10.9553 19.3689 9.13263C19.4398 7.31 19.0416 5.49969 18.2125 3.875H25.1875C26.6701 3.87492 28.0967 4.44138 29.1754 5.45849C30.2541 6.47559 30.9033 7.86646 30.9903 9.3465L31 9.6875V17.4375H23.25L22.909 17.4472C21.4877 17.5306 20.1464 18.1329 19.1396 19.1396C18.1329 20.1464 17.5306 21.4877 17.4472 22.909L17.4375 23.25V31H9.6875C8.2049 31.0001 6.77832 30.4336 5.69962 29.4165C4.62092 28.3994 3.97167 27.0085 3.88469 25.5285L3.875 25.1875V18.2125C5.32812 18.9565 6.975 19.375 8.71875 19.375ZM30.8062 19.3769C30.6561 19.8377 30.4208 20.2662 30.1126 20.6402L29.8646 20.9114L20.9114 29.8646C20.4774 30.2986 19.9504 30.6202 19.3769 30.8082L19.375 23.25L19.3847 22.9594C19.454 22.0368 19.8512 21.1695 20.5043 20.5142C21.1574 19.8589 22.0235 19.459 22.9458 19.3866L23.25 19.375L30.8062 19.3769Z" fill="#FFFCFB"/>
</svg>
