<svg width="60" height="60" viewBox="0 0 60 60" fill="none" xmlns="http://www.w3.org/2000/svg">
<path fill-rule="evenodd" clip-rule="evenodd" d="M9 0C6.61305 0 4.32387 0.948212 2.63604 2.63604C0.948212 4.32387 0 6.61305 0 9V51C0 53.3869 0.948212 55.6761 2.63604 57.364C4.32387 59.0518 6.61305 60 9 60H36V45C36 42.6131 36.9482 40.3239 38.636 38.636C40.3239 36.9482 42.6131 36 45 36H60V9C60 6.61305 59.0518 4.32387 57.364 2.63604C55.6761 0.948212 53.3869 0 51 0H9ZM45.879 57.363C44.8006 58.4413 43.4658 59.228 42 59.649V45C42 44.2043 42.3161 43.4413 42.8787 42.8787C43.4413 42.3161 44.2043 42 45 42H59.649C59.228 43.4658 58.4413 44.8006 57.363 45.879L45.879 57.363ZM15 12C14.2044 12 13.4413 12.3161 12.8787 12.8787C12.3161 13.4413 12 14.2044 12 15C12 15.7956 12.3161 16.5587 12.8787 17.1213C13.4413 17.6839 14.2044 18 15 18H45C45.7957 18 46.5587 17.6839 47.1213 17.1213C47.6839 16.5587 48 15.7956 48 15C48 14.2044 47.6839 13.4413 47.1213 12.8787C46.5587 12.3161 45.7957 12 45 12H15ZM15 24C14.2044 24 13.4413 24.3161 12.8787 24.8787C12.3161 25.4413 12 26.2044 12 27C12 27.7956 12.3161 28.5587 12.8787 29.1213C13.4413 29.6839 14.2044 30 15 30H45C45.7957 30 46.5587 29.6839 47.1213 29.1213C47.6839 28.5587 48 27.7956 48 27C48 26.2044 47.6839 25.4413 47.1213 24.8787C46.5587 24.3161 45.7957 24 45 24H15ZM15 36C14.2044 36 13.4413 36.3161 12.8787 36.8787C12.3161 37.4413 12 38.2043 12 39C12 39.7957 12.3161 40.5587 12.8787 41.1213C13.4413 41.6839 14.2044 42 15 42H27C27.7956 42 28.5587 41.6839 29.1213 41.1213C29.6839 40.5587 30 39.7957 30 39C30 38.2043 29.6839 37.4413 29.1213 36.8787C28.5587 36.3161 27.7956 36 27 36H15Z" fill="#FFFCFB"/>
</svg>
